<svg width="64" height="117" viewBox="0 0 64 117" fill="none" xmlns="http://www.w3.org/2000/svg">
<path d="M60.6089 10.3039C60.8731 10.3039 61.1264 10.2046 61.3133 10.0277C61.5001 9.8509 61.605 9.61107 61.605 9.36099V5.54691C61.605 5.42308 61.5792 5.30047 61.5292 5.18607C61.4791 5.07168 61.4057 4.96773 61.3133 4.88017C61.2208 4.79262 61.1109 4.72316 60.9901 4.67578C60.8692 4.62839 60.7397 4.604 60.6089 4.604C60.4781 4.604 60.3486 4.62839 60.2277 4.67578C60.1068 4.72316 59.997 4.79262 59.9045 4.88017C59.812 4.96773 59.7387 5.07168 59.6886 5.18607C59.6386 5.30047 59.6128 5.42308 59.6128 5.54691V9.36099C59.6128 9.61107 59.7177 9.8509 59.9045 10.0277C60.0914 10.2046 60.3447 10.3039 60.6089 10.3039Z" fill="#3B2645"/>
<path d="M58.6167 13.6339C58.8793 13.6339 59.1314 13.5357 59.3179 13.3607C59.5045 13.1857 59.6104 12.948 59.6128 12.6994V2.21707C59.6128 1.967 59.5079 1.72717 59.3211 1.55034C59.1343 1.37351 58.8809 1.27417 58.6167 1.27417C58.3525 1.27417 58.0992 1.37351 57.9124 1.55034C57.7256 1.72717 57.6206 1.967 57.6206 2.21707V12.6994C57.623 12.948 57.729 13.1857 57.9155 13.3607C58.1021 13.5357 58.3541 13.6339 58.6167 13.6339Z" fill="#291B30"/>
<path d="M51.5092 11.0771C51.5092 11.0771 51.5092 11.4168 51.4554 11.9945C51.2849 14.4664 50.7016 21.4235 49.3645 25.382C48.9876 26.4863 47.812 29.0942 46.43 32.0503C44.4019 36.4845 41.9251 41.5813 40.9828 43.8323C40.6777 44.5629 37.7163 43.1783 36.9266 43.0423C34.9344 42.6771 34.6921 39.3132 35.3382 36.4845C35.5474 35.4943 35.9295 34.544 36.469 33.6728L36.6395 33.4264L36.7561 33.265C37.8509 31.753 39.6367 29.7992 41.2431 28.0238C42.4317 26.7963 43.487 25.4587 44.3929 24.0314C45.2903 22.222 48.1709 11.3914 48.1709 11.3914C49.526 9.99824 51.5092 11.0771 51.5092 11.0771Z" fill="#F5A784"/>
<path d="M51.8861 9.90479C51.7874 10.3125 51.7066 10.7033 51.6438 11.0176C51.5271 11.5952 51.4733 11.9775 51.4733 11.9775C50.4682 12.9714 48.5119 11.9775 48.5119 11.9775C48.3787 11.8076 48.2587 11.6287 48.153 11.4423C47.6138 10.5651 47.3991 9.54284 47.5427 8.53716C47.6863 7.76415 47.8299 5.98877 47.8299 5.98877H48.1889C48.5658 5.98877 48.6824 7.09307 48.7093 7.61124C48.7163 7.68188 48.7163 7.75298 48.7093 7.82361C48.73 7.73218 48.7696 7.64555 48.826 7.56877C48.9455 7.43182 49.0991 7.32517 49.273 7.25844C49.4469 7.19171 49.6356 7.16699 49.8221 7.18651C50.2798 7.18651 50.7195 7.18651 51.1861 7.18651C51.3964 7.18226 51.605 7.22291 51.7964 7.30544C51.8647 7.3321 51.926 7.37271 51.9758 7.42436C52.5771 8.002 52.0476 9.30167 51.8861 9.90479Z" fill="#F5A784"/>
<path d="M51.8862 9.90483C51.7875 10.3126 51.7067 10.7033 51.6439 11.0176C51.5735 10.9162 51.4955 10.8197 51.4106 10.7288C51.0146 10.365 50.5485 10.0766 50.0376 9.87934C49.4633 9.59053 47.8838 8.74106 48.3684 7.8831C48.4507 7.76607 48.5701 7.67682 48.7094 7.62827L48.844 7.58579C49.5868 7.47985 50.3364 7.42309 51.0875 7.4159C51.3298 7.4159 51.5721 7.33945 51.8144 7.31396C51.8815 7.3427 51.9424 7.38303 51.9939 7.43289C52.5772 8.00203 52.0477 9.30171 51.8862 9.90483Z" fill="#E0855C"/>
<path d="M38.1829 25.9086C38.4774 24.3113 38.8912 22.7358 39.4213 21.194C39.487 21.028 39.5066 20.8488 39.4782 20.6735C39.4498 20.4982 39.3743 20.3328 39.2591 20.193C39.1438 20.0533 38.9926 19.9438 38.8199 19.8752C38.6472 19.8065 38.4588 19.7809 38.2727 19.8009C37.889 19.8645 37.5153 19.9729 37.1599 20.1237C37.1599 20.1237 38.0573 17.6773 36.792 16.8703C35.5266 16.0633 33.6511 17.6093 32.9242 18.7646C33.0649 18.5176 33.1043 18.23 33.0347 17.9572C32.9651 17.6844 32.7916 17.4456 32.5473 17.2865C31.6499 16.7429 27.6386 20.9307 28.4283 24.371C29.218 27.8114 29.55 26.843 29.55 26.843C29.55 26.843 37.9316 26.3503 38.1829 25.9086Z" fill="#3B2645"/>
<path d="M29.3257 25.3566C29.2366 25.2408 29.1199 25.1465 28.9849 25.0815C28.85 25.0165 28.7008 24.9827 28.5495 24.9827C28.3981 24.9827 28.2489 25.0165 28.114 25.0815C27.9791 25.1465 27.8623 25.2408 27.7732 25.3566C26.9925 26.206 28.3206 27.905 29.3257 28.0069C29.3847 27.1243 29.3847 26.2391 29.3257 25.3566V25.3566Z" fill="#E0855C"/>
<path d="M43.8007 35.6351C42.6096 38.2988 41.6667 41.0558 40.9829 43.8749C40.9291 44.1468 40.8752 44.4016 40.8304 44.6479C40.5342 46.3469 39.6368 54.7226 39.4933 56.0392C39.4933 56.1497 39.4933 56.2091 39.4933 56.2091C32.4667 58.044 25.135 56.2091 25.135 56.2091C25.135 56.2091 25.135 56.0817 25.135 55.8354C24.9735 54.2044 24.2825 47.4342 23.8697 41.5814C23.6543 38.5913 23.5197 35.8475 23.5556 34.1401C23.5556 33.5115 25.0991 33.5794 26.158 33.435C27.4291 33.2806 28.7085 33.1955 29.9899 33.1802H30.3847L30.4745 32.2033L30.5463 31.5492L30.7168 29.7993C30.8334 29.7993 30.9501 29.8418 31.0667 29.8503C31.2919 29.8894 31.5199 29.9121 31.7488 29.9183C32.0265 29.9397 32.3056 29.9397 32.5833 29.9183L32.9782 29.8758C33.153 29.8593 33.3268 29.8337 33.4987 29.7993C33.7858 29.7399 34.064 29.6634 34.3243 29.587L34.5576 29.5105H34.6204L34.7999 29.4426C35.1347 29.3164 35.4588 29.1658 35.7691 28.9923C35.9396 28.8989 36.0832 28.8055 36.1998 28.729L36.2806 28.678L36.4331 28.5676C36.4757 28.5479 36.5126 28.5187 36.5408 28.4827C36.5408 28.6101 36.5408 28.6611 36.5408 28.7205C36.4601 29.2727 36.3793 29.9862 36.3434 30.6998C36.3434 31.184 36.2896 31.6682 36.2716 32.0929C36.2716 32.8149 36.2716 33.3416 36.2716 33.3416C36.439 33.3331 36.6068 33.3331 36.7742 33.3416C36.7823 33.3371 36.7916 33.3348 36.8011 33.3348C36.8105 33.3348 36.8198 33.3371 36.828 33.3416C37.5597 33.374 38.2883 33.4534 39.0087 33.5794C40.6628 33.8609 42.2535 34.4097 43.711 35.2019C43.7765 35.2532 43.8213 35.3244 43.8376 35.4033C43.854 35.4823 43.841 35.5642 43.8007 35.6351V35.6351Z" fill="#F5A784"/>
<path d="M36.5226 28.406C36.4032 29.0147 36.142 29.5906 35.7581 30.0919C35.3743 30.5931 34.8773 31.0072 34.3034 31.3041C33.7294 31.601 33.0928 31.7731 32.4398 31.8082C31.7868 31.8432 31.1338 31.7401 30.5281 31.5065L30.6986 29.7567C31.7148 29.9422 32.7615 29.9176 33.7667 29.6845C34.772 29.4513 35.7121 29.0152 36.5226 28.406Z" fill="#E0855C"/>
<path d="M29.5501 22.8082C29.0296 23.3093 28.9937 24.4561 28.9489 25.7133C28.8143 29.5274 30.0257 30.7252 32.0808 30.929C34.1358 31.1329 36.2985 30.3939 36.7382 26.8516C36.9626 25.0847 37.1959 23.4538 36.5229 22.6807C35.4639 21.5425 31.0847 21.2451 29.5501 22.8082Z" fill="#F5A784"/>
<path d="M36.4063 26.3418C36.4063 26.3418 37.0434 24.7618 38.0305 25.6028C39.0177 26.4437 37.6267 28.8392 36.1371 28.6523C36.1371 28.6523 35.9217 26.8855 36.4063 26.3418Z" fill="#F5A784"/>
<path d="M37.5729 26.2909C37.3406 26.3671 37.1313 26.4953 36.9627 26.6646C36.7796 26.8132 36.6301 26.9952 36.5229 27.1998C36.5229 27.2677 36.5858 27.3017 36.6396 27.2677C36.6935 27.2338 36.864 27.0129 36.9896 26.894C37.066 26.9876 37.1643 27.0632 37.2768 27.1148C37.2974 27.118 37.3186 27.1158 37.3381 27.1086C37.3575 27.1013 37.3746 27.0892 37.3874 27.0736C37.4003 27.058 37.4084 27.0394 37.4111 27.0197C37.4137 27.0001 37.4107 26.9801 37.4024 26.9619C37.3399 26.8745 37.257 26.8018 37.1601 26.7496C37.3278 26.6451 37.4868 26.5287 37.6357 26.4013C37.6446 26.3909 37.6501 26.3782 37.6514 26.3648C37.6528 26.3515 37.6499 26.3381 37.6432 26.3263C37.6364 26.3145 37.6262 26.3048 37.6137 26.2985C37.6012 26.2922 37.587 26.2895 37.5729 26.2909Z" fill="#E0855C"/>
<path d="M30.6716 25.6198C30.6716 25.6198 30.3217 25.7473 30.3755 25.1611C30.4293 24.575 30.6716 24.7109 30.6716 24.7109C30.6716 24.7109 30.9139 24.7109 30.878 25.1696C30.8421 25.6283 30.6716 25.6198 30.6716 25.6198Z" fill="#3B2645"/>
<path d="M34.2078 25.6198C34.2078 25.6198 33.8578 25.7473 33.9116 25.1611C33.9655 24.575 34.2078 24.7109 34.2078 24.7109C34.2078 24.7109 34.4501 24.7109 34.4142 25.1696C34.3783 25.6283 34.2078 25.6198 34.2078 25.6198Z" fill="#3B2645"/>
<path d="M32.2423 27.1827C32.0718 27.1827 31.6679 27.2507 31.5782 27.0723C31.613 26.6673 31.7004 26.2678 31.8385 25.8831C32.0043 25.364 32.1391 24.8365 32.2423 24.3031C32.2423 24.3031 32.2423 24.2606 32.1795 24.3031C31.8247 25.2271 31.5457 26.1756 31.3449 27.1403C31.3423 27.1521 31.3424 27.1642 31.3452 27.176C31.3479 27.1878 31.3533 27.1988 31.361 27.2085C31.3686 27.2181 31.3783 27.2261 31.3895 27.2319C31.4006 27.2377 31.413 27.2412 31.4257 27.2422C31.6859 27.2422 31.9372 27.2932 32.1974 27.2932C32.323 27.3271 32.35 27.1912 32.2423 27.1827Z" fill="#E0855C"/>
<path d="M31.0576 23.8529C30.8064 23.7255 30.3397 23.7 30.1603 23.9464C30.1539 23.9567 30.1506 23.9685 30.1506 23.9805C30.1507 23.9925 30.154 24.0042 30.1604 24.0146C30.1668 24.0249 30.1759 24.0335 30.1869 24.0394C30.198 24.0453 30.2104 24.0484 30.2231 24.0483C30.3487 24.0483 30.4564 23.9888 30.582 23.9803C30.7136 23.9744 30.8451 23.9947 30.9679 24.0398C31.0846 24.0738 31.1653 23.9039 31.0576 23.8529Z" fill="#3B2645"/>
<path d="M34.7282 24.1417C34.5846 23.8019 33.9654 23.7679 33.7052 23.9803C33.69 23.9872 33.6772 23.9981 33.6682 24.0116C33.6593 24.0252 33.6545 24.0408 33.6545 24.0567C33.6545 24.0727 33.6593 24.0883 33.6682 24.1019C33.6772 24.1154 33.69 24.1262 33.7052 24.1332C33.8577 24.1842 34.0193 24.1332 34.1808 24.1332C34.3113 24.1531 34.4381 24.1903 34.5577 24.2436C34.6743 24.2776 34.7551 24.2012 34.7282 24.1417Z" fill="#3B2645"/>
<path d="M31.3447 28.3635C32.1153 28.4593 32.8984 28.3288 33.5882 27.9897C33.4849 28.2156 33.3336 28.4189 33.1437 28.5869C32.9538 28.755 32.7294 28.8842 32.4844 28.9666C31.7037 29.1875 31.3447 28.3635 31.3447 28.3635Z" fill="white"/>
<path d="M29.9 43.0424C29.1282 43.1783 25.5835 43.5521 24.9554 43.0424C24.5045 42.6166 24.1315 42.1228 23.8516 41.5813C22.4142 38.7156 21.1586 35.7712 20.0915 32.7639C18.889 29.5529 17.866 26.5628 17.4801 25.4245C16.0891 21.4236 15.5507 14.458 15.3802 11.986C15.3353 11.4084 15.3174 11.0771 15.3174 11.0771C15.3174 11.0771 17.2827 10.0238 18.6826 11.4084C18.6826 11.4084 21.6081 22.2476 22.4696 24.0569C23.193 25.236 24.0441 26.3406 25.0092 27.3528C26.6694 29.2386 28.7154 31.4472 29.9718 33.1377L30.2051 33.452L30.3756 33.6983C31.1667 35.0564 31.6381 36.5603 31.7576 38.107C31.9909 40.4515 31.5332 42.7451 29.9 43.0424Z" fill="#F5A784"/>
<path d="M18.6828 11.4082C18.577 11.5946 18.4571 11.7735 18.3238 11.9434C18.3238 11.9434 16.3765 12.9627 15.3804 11.9858C15.3804 11.9858 15.3355 11.7225 15.2547 11.3148C15.174 10.907 15.0842 10.4653 14.9496 9.90464C14.8419 9.4969 14.142 7.87443 14.5009 7.58561C14.5868 7.5306 14.6852 7.49566 14.7881 7.48367L15.9906 7.2798C16.6816 7.16088 17.8392 6.98249 18.1174 7.80647C18.1174 7.33077 18.1174 6.20948 18.6379 5.96313H19.0148C19.0148 5.96313 19.1494 7.70453 19.293 8.51152C19.4346 9.51442 19.2199 10.5334 18.6828 11.4082V11.4082Z" fill="#F5A784"/>
<path d="M23.7619 57.7211C23.7619 57.7211 20.0467 67.2096 19.8941 85.1588C19.8941 86.5859 16.9597 96.4651 18.0993 110.269L22.4696 111.05C22.4696 111.05 26.7053 96.4736 26.8938 86.5264C26.8938 86.5264 32.2781 68.8746 32.6461 60.7537C33.014 52.6328 27.3066 49.9995 23.7619 57.7211Z" fill="#F5A784"/>
<path d="M23.0801 115.213C23.0844 115.255 23.0844 115.298 23.0801 115.34C22.9365 117.251 21.2853 116.954 18.8444 116.988C16.897 116.988 15.8561 115.96 15.9727 114.847C16.0141 114.511 16.1436 114.19 16.3496 113.913C16.9989 112.937 17.4465 111.853 17.6688 110.719C20.0738 107.984 22.5237 111.033 22.5237 111.033C22.8884 112.4 23.0753 113.803 23.0801 115.213Z" fill="#3B2645"/>
<path d="M40.6957 57.7211C40.6957 57.7211 44.4109 67.2096 44.5545 85.1588C44.5545 86.5859 47.4979 96.4651 46.3493 110.269L41.979 111.05C41.979 111.05 37.7523 96.4736 37.5548 86.5264C37.5548 86.5264 32.1705 68.8746 31.8026 60.7537C31.4346 52.6328 37.151 49.9995 40.6957 57.7211Z" fill="#F5A784"/>
<path d="M45.6313 116.988C43.1276 116.988 41.4226 117.26 41.3777 115.213V115.034C41.3799 113.683 41.57 112.338 41.943 111.033C41.943 111.033 44.4019 107.984 46.7979 110.719C47.0208 111.854 47.4717 112.939 48.1261 113.913C48.2434 114.073 48.3369 114.247 48.4043 114.431C48.8619 115.688 47.821 117.022 45.6313 116.988Z" fill="#3B2645"/>
<path d="M46.4301 32.0501C44.402 36.4843 41.9342 41.581 40.9829 43.8321C40.9291 44.1039 40.8753 44.3588 40.8304 44.6051C40.5342 46.3041 39.6369 54.6798 39.4933 55.9964C37.0613 56.7015 32.1167 57.534 25.135 55.7926C24.9735 54.1616 24.2825 47.3914 23.8697 41.5386C22.4323 38.6728 21.1767 35.7284 20.1096 32.7211C21.7877 31.7188 24.1389 29.9264 25.0273 27.3525C26.6875 29.2383 28.7336 31.447 29.9899 33.1374H30.1694C30.1694 33.2308 30.1694 33.3413 30.2232 33.4517C30.4472 35.0778 30.9728 36.6536 31.7757 38.1067C31.8919 38.3094 32.0561 38.4838 32.2553 38.6165C32.4546 38.7491 32.6836 38.8363 32.9244 38.8713C33.8218 38.8713 34.6743 37.8009 35.3563 36.5097C35.8677 35.5216 36.3026 34.4995 36.6575 33.4517L36.7203 33.2903C36.7285 33.2858 36.7378 33.2835 36.7473 33.2835C36.7567 33.2835 36.766 33.2858 36.7742 33.2903C37.869 31.7782 39.6548 29.8245 41.2611 28.0491C42.1137 29.2044 44.1597 31.5149 46.4301 32.0501Z" fill="#E8CEE5"/>
<path d="M44.7521 77.0632C42.395 78.2254 39.7354 78.7236 37.0883 78.4988C36.1558 78.4237 35.2444 78.1936 34.3962 77.8192L32.2424 66.4364L30.1515 77.8192C25.6107 79.3737 19.3828 76.5365 19.3828 76.5365C21.366 58.1287 25.0633 55.3679 25.0633 55.3679C31.1566 57.2452 39.5472 55.4274 39.5472 55.4274C43.8457 60.8894 44.7521 77.0632 44.7521 77.0632Z" fill="#3B2645"/>
<path d="M15.3355 11.2724H15.2547C15.1829 10.9072 15.0842 10.423 14.9496 9.86233C14.8419 9.45459 14.1509 7.84061 14.5009 7.5433C14.5875 7.48964 14.6856 7.45483 14.7881 7.44136L15.9906 7.23749C16.4999 7.11452 17.0337 7.11452 17.5431 7.23749C17.7851 7.34395 17.9879 7.51652 18.1254 7.733C18.263 7.94948 18.3289 8.19997 18.3148 8.45222C18.3148 9.98126 15.7572 11.0601 15.3355 11.2724Z" fill="#E0855C"/>
<path d="M63.4805 8.0105H0.519512C0.376126 7.9937 0.244174 7.92786 0.148493 7.82539C0.0528111 7.72291 0 7.59087 0 7.4541C0 7.31734 0.0528111 7.18529 0.148493 7.08282C0.244174 6.98034 0.376126 6.91451 0.519512 6.89771H63.4805C63.6239 6.91451 63.7558 6.98034 63.8515 7.08282C63.9472 7.18529 64 7.31734 64 7.4541C64 7.59087 63.9472 7.72291 63.8515 7.82539C63.7558 7.92786 63.6239 7.9937 63.4805 8.0105V8.0105Z" fill="#3B2645"/>
<path d="M2.5207 10.3041C2.25569 10.3041 2.00139 10.205 1.81316 10.0284C1.62493 9.85186 1.51799 9.61204 1.51562 9.36119V5.5471C1.51562 5.29477 1.62152 5.05278 1.81001 4.87436C1.99849 4.69594 2.25414 4.5957 2.5207 4.5957C2.78727 4.5957 3.04291 4.69594 3.2314 4.87436C3.41989 5.05278 3.52578 5.29477 3.52578 5.5471V9.36119C3.52579 9.48573 3.49973 9.60904 3.44911 9.72399C3.39849 9.83895 3.32431 9.94327 3.23086 10.0309C3.13741 10.1186 3.02654 10.1879 2.90465 10.2348C2.78276 10.2817 2.65227 10.3052 2.5207 10.3041V10.3041Z" fill="#3B2645"/>
<path d="M4.51301 13.6339C4.25121 13.6339 4.00013 13.5354 3.815 13.3602C3.62988 13.1849 3.52588 12.9473 3.52588 12.6994V2.21707C3.52588 1.967 3.63083 1.72717 3.81763 1.55034C4.00444 1.37351 4.2578 1.27417 4.52198 1.27417C4.78617 1.27417 5.03953 1.37351 5.22634 1.55034C5.41314 1.72717 5.51809 1.967 5.51809 2.21707V12.6994C5.51691 12.8233 5.48999 12.9457 5.43884 13.0596C5.38769 13.1736 5.31333 13.2769 5.22 13.3637C5.12667 13.4505 5.0162 13.519 4.89489 13.5653C4.77358 13.6117 4.64382 13.635 4.51301 13.6339Z" fill="#291B30"/>
<path d="M6.50514 15.2479C6.24095 15.2479 5.98759 15.1485 5.80079 14.9717C5.61398 14.7949 5.50903 14.555 5.50903 14.305V0.942904C5.50903 0.69283 5.61398 0.452999 5.80079 0.27617C5.98759 0.0993413 6.24095 0 6.50514 0C6.76932 0 7.02268 0.0993413 7.20949 0.27617C7.3963 0.452999 7.50124 0.69283 7.50124 0.942904V14.2795C7.50484 14.4054 7.48173 14.5308 7.43329 14.6481C7.38484 14.7655 7.31204 14.8725 7.21918 14.9627C7.12632 15.053 7.01529 15.1248 6.89265 15.1737C6.77001 15.2227 6.63824 15.2479 6.50514 15.2479V15.2479Z" fill="#3B2645"/>
<path d="M56.6244 15.2479C56.8886 15.2479 57.1419 15.1485 57.3287 14.9717C57.5156 14.7949 57.6205 14.555 57.6205 14.305V0.942904C57.6205 0.69283 57.5156 0.452999 57.3287 0.27617C57.1419 0.0993413 56.8886 0 56.6244 0C56.3602 0 56.1069 0.0993413 55.92 0.27617C55.7332 0.452999 55.6283 0.69283 55.6283 0.942904V14.2795C55.6247 14.4054 55.6478 14.5308 55.6962 14.6481C55.7447 14.7655 55.8175 14.8725 55.9104 14.9627C56.0032 15.053 56.1142 15.1248 56.2369 15.1737C56.3595 15.2227 56.4913 15.2479 56.6244 15.2479Z" fill="#3B2645"/>
<path d="M15.3533 8.65596C15.3889 8.74014 15.4441 8.81563 15.5148 8.87682C15.6218 8.94366 15.7458 8.98182 15.8738 8.98725C16.2726 9.02283 16.6747 9.0028 17.0673 8.92779C17.4317 8.88186 17.7663 8.71294 18.0096 8.45209C18.1364 8.2805 18.2139 8.08062 18.2343 7.87209C18.2548 7.66357 18.2175 7.4536 18.1263 7.26284C17.9912 6.96255 17.7823 6.69716 17.517 6.48881C17.2516 6.28046 16.9374 6.13518 16.6007 6.0651C16.0443 5.94618 14.6354 5.99714 14.4111 6.65123C14.2944 6.97403 14.6264 7.29682 14.788 7.55166C14.9495 7.8065 15.1918 8.29919 15.3533 8.65596Z" fill="#F5A784"/>
<path d="M51.0876 8.65596C51.0519 8.74232 50.9932 8.81843 50.9171 8.87682C50.8108 8.94486 50.6864 8.98314 50.5581 8.98725C50.1624 9.02261 49.7632 9.00258 49.3736 8.92779C48.9976 8.886 48.6503 8.71707 48.3954 8.45209C48.2684 8.28043 48.1915 8.08003 48.1726 7.87118C48.1536 7.66234 48.1934 7.45247 48.2877 7.26284C48.4219 6.96355 48.6294 6.6988 48.8932 6.49052C49.1569 6.28224 49.4692 6.13641 49.8043 6.0651C50.3697 5.94618 51.7786 5.99714 52.0029 6.65123C52.1196 6.97403 51.7876 7.29682 51.626 7.55166C51.4645 7.8065 51.285 8.29919 51.0876 8.65596Z" fill="#F5A784"/>
<path d="M37.0883 78.4989C36.1558 78.4238 35.2444 78.1937 34.3962 77.8193L32.2424 66.4365C32.2424 66.4365 34.9346 70.0807 37.0883 78.4989Z" fill="#291B30"/>
<path d="M23.062 115.34C22.9184 117.251 21.2672 116.954 18.8263 116.988C16.879 116.988 15.838 115.96 15.9547 114.847C16.4156 115.264 16.9855 115.558 17.6059 115.697C18.3411 115.836 19.0938 115.873 19.8404 115.807C20.9255 115.732 22.0027 115.575 23.062 115.34V115.34Z" fill="#291B30"/>
<path d="M45.6313 116.988C43.1276 116.988 41.4226 117.26 41.3777 115.213V115.034C42.0611 115.507 42.8594 115.808 43.6987 115.911C44.538 116.013 45.3911 115.913 46.1787 115.62C46.9658 115.305 47.7124 114.906 48.4043 114.431C48.8619 115.688 47.821 117.022 45.6313 116.988Z" fill="#291B30"/>
<path d="M21.7698 112.086C21.0878 111.296 19.4456 111.347 18.5841 111.789C18.5336 111.823 18.4968 111.872 18.4798 111.928C18.4629 111.984 18.4668 112.044 18.491 112.098C18.5152 112.151 18.5581 112.196 18.6127 112.223C18.6672 112.25 18.73 112.259 18.7905 112.248C19.2403 112.117 19.7118 112.065 20.1815 112.095C20.6343 112.203 21.0782 112.342 21.5096 112.511C21.5665 112.525 21.6267 112.521 21.681 112.5C21.7353 112.478 21.7806 112.441 21.8101 112.392C21.8396 112.344 21.8517 112.288 21.8444 112.233C21.8371 112.178 21.8109 112.126 21.7698 112.086V112.086Z" fill="#E8CEE5"/>
<path d="M21.375 112.996C20.8456 112.843 20.2951 112.766 19.7417 112.766C19.2504 112.71 18.752 112.778 18.2969 112.962C18.2681 112.974 18.2436 112.993 18.2264 113.018C18.2091 113.043 18.2 113.072 18.2 113.102C18.2 113.132 18.2091 113.161 18.2264 113.186C18.2436 113.21 18.2681 113.23 18.2969 113.242C18.7616 113.321 19.2343 113.35 19.7058 113.327C20.2353 113.327 20.7378 113.471 21.2673 113.505C21.6262 113.539 21.6442 113.089 21.375 112.996Z" fill="#E8CEE5"/>
<path d="M46.0981 111.84C45.7571 110.863 43.7469 111.373 43.038 111.585C42.7508 111.662 42.7867 112.112 43.1098 112.095C43.6033 112.095 44.0879 111.934 44.5815 111.9C44.841 111.879 45.1022 111.902 45.3532 111.968C45.5138 112.051 45.6913 112.1 45.8737 112.112C45.9087 112.112 45.9432 112.104 45.9745 112.089C46.0059 112.074 46.0334 112.053 46.0549 112.027C46.0765 112.001 46.0915 111.971 46.099 111.938C46.1065 111.906 46.1062 111.872 46.0981 111.84V111.84Z" fill="#E8CEE5"/>
<path d="M45.8646 112.656C45.353 112.214 44.2403 112.359 43.6211 112.477C43.316 112.537 42.5801 112.826 42.9839 113.216C43.0058 113.232 43.0326 113.241 43.0602 113.241C43.0878 113.241 43.1146 113.232 43.1365 113.216C43.3877 112.987 44.0339 113.03 44.3659 113.021C44.8267 113.09 45.296 113.09 45.7569 113.021C45.793 113.008 45.8253 112.986 45.8513 112.959C45.8772 112.932 45.8962 112.899 45.9066 112.864C45.917 112.828 45.9187 112.791 45.9114 112.755C45.9041 112.719 45.8881 112.685 45.8646 112.656V112.656Z" fill="#E8CEE5"/>
<path d="M29.2988 47.0859C29.2936 47.1311 29.2936 47.1767 29.2988 47.2219C29.2988 47.2219 29.3795 47.2219 29.3616 47.2219L29.2988 47.0859Z" fill="#D6BED3"/>
<path d="M38.6408 38.2936C38.2286 36.9997 37.9491 35.6712 37.8062 34.3266C37.8062 34.2905 37.7911 34.256 37.7642 34.2305C37.7372 34.205 37.7007 34.1907 37.6626 34.1907C37.6246 34.1907 37.588 34.205 37.5611 34.2305C37.5342 34.256 37.5191 34.2905 37.5191 34.3266C37.205 36.7815 38.2998 39.7801 39.6638 41.8443C39.6874 41.8757 39.7216 41.8985 39.7607 41.9091C39.7998 41.9197 39.8415 41.9174 39.879 41.9026C39.9166 41.8878 39.9477 41.8614 39.9673 41.8276C39.9869 41.7939 39.9938 41.7549 39.9869 41.7169C39.6459 40.5447 39.0446 39.4488 38.6408 38.2936Z" fill="#D6BED3"/>
<path d="M28.7605 33.8681C28.0246 34.9639 27.3965 36.1277 26.6606 37.2659C25.9247 38.4042 25.0632 39.3726 24.4171 40.5109C24.4052 40.5255 24.3999 40.5441 24.4025 40.5624C24.405 40.5807 24.4151 40.5973 24.4306 40.6086C24.446 40.6198 24.4656 40.6248 24.485 40.6224C24.5043 40.6201 24.5219 40.6105 24.5338 40.5958C26.4765 38.6858 28.0014 36.4312 29.0207 33.9615C29.0656 33.8256 28.8413 33.7407 28.7605 33.8681Z" fill="#D6BED3"/>
</svg>
